<mxfile host="app.diagrams.net" agent="Mozilla/5.0 (Macintosh; Intel Mac OS X 10_15_7) AppleWebKit/537.36 (KHTML, like Gecko) Chrome/131.0.0.0 Safari/537.36" version="25.0.1">
  <diagram name="Page-1" id="90a13364-a465-7bf4-72fc-28e22215d7a0">
    <mxGraphModel dx="911" dy="605" grid="1" gridSize="10" guides="1" tooltips="1" connect="1" arrows="1" fold="1" page="1" pageScale="1.5" pageWidth="1169" pageHeight="826" background="none" math="0" shadow="0">
      <root>
        <mxCell id="0" style=";html=1;" />
        <mxCell id="1" style=";html=1;" parent="0" />
        <mxCell id="3a17f1ce550125da-1" value="Pong" style="whiteSpace=wrap;html=1;shadow=1;fontSize=20;fillColor=#f5f5f5;strokeColor=#666666;strokeWidth=2;dashed=1;" parent="1" vertex="1">
          <mxGeometry x="850" y="330" width="150" height="60" as="geometry" />
        </mxCell>
        <mxCell id="RpWCt385Ka6AR4KMFrXU-1" value="&lt;font style=&quot;font-size: 21px;&quot;&gt;Clock 100 MHz&lt;/font&gt;" style="whiteSpace=wrap;html=1;aspect=fixed;" parent="1" vertex="1">
          <mxGeometry x="1310" y="480" width="100" height="100" as="geometry" />
        </mxCell>
        <object label="&lt;font style=&quot;font-size: 21px;&quot;&gt;Up/Down&lt;/font&gt;" id="RpWCt385Ka6AR4KMFrXU-2">
          <mxCell style="whiteSpace=wrap;html=1;aspect=fixed;" parent="1" vertex="1">
            <mxGeometry x="1310" y="720" width="100" height="100" as="geometry" />
          </mxCell>
        </object>
        <mxCell id="RpWCt385Ka6AR4KMFrXU-18" value="&lt;font style=&quot;font-size: 19px;&quot;&gt;ASCII ROM&lt;/font&gt;" style="whiteSpace=wrap;html=1;aspect=fixed;" parent="1" vertex="1">
          <mxGeometry x="950" y="410" width="100" height="100" as="geometry" />
        </mxCell>
        <mxCell id="RpWCt385Ka6AR4KMFrXU-19" value="&lt;font style=&quot;font-size: 21px;&quot;&gt;VGA Controller&lt;/font&gt;" style="whiteSpace=wrap;html=1;aspect=fixed;" parent="1" vertex="1">
          <mxGeometry x="1130" y="480" width="100" height="100" as="geometry" />
        </mxCell>
        <mxCell id="RpWCt385Ka6AR4KMFrXU-20" value="&lt;font style=&quot;font-size: 20px;&quot;&gt;Text Gen&lt;/font&gt;" style="whiteSpace=wrap;html=1;aspect=fixed;" parent="1" vertex="1">
          <mxGeometry x="950" y="570" width="100" height="100" as="geometry" />
        </mxCell>
        <mxCell id="RpWCt385Ka6AR4KMFrXU-21" value="&lt;font style=&quot;font-size: 23px;&quot;&gt;Timer&lt;/font&gt;" style="whiteSpace=wrap;html=1;aspect=fixed;" parent="1" vertex="1">
          <mxGeometry x="730" y="410" width="100" height="100" as="geometry" />
        </mxCell>
        <mxCell id="RpWCt385Ka6AR4KMFrXU-22" value="&lt;font style=&quot;font-size: 19px;&quot;&gt;State Machine done inside Pong Top&lt;/font&gt;" style="whiteSpace=wrap;html=1;aspect=fixed;" parent="1" vertex="1">
          <mxGeometry x="730" y="570" width="100" height="100" as="geometry" />
        </mxCell>
        <mxCell id="RpWCt385Ka6AR4KMFrXU-23" value="&lt;font style=&quot;font-size: 19px;&quot;&gt;Graphics Gen&lt;/font&gt;" style="whiteSpace=wrap;html=1;aspect=fixed;" parent="1" vertex="1">
          <mxGeometry x="950" y="700" width="100" height="100" as="geometry" />
        </mxCell>
        <mxCell id="RpWCt385Ka6AR4KMFrXU-24" value="&lt;font style=&quot;font-size: 20px;&quot;&gt;Counter&lt;/font&gt;" style="whiteSpace=wrap;html=1;aspect=fixed;" parent="1" vertex="1">
          <mxGeometry x="950" y="820" width="100" height="100" as="geometry" />
        </mxCell>
        <mxCell id="RpWCt385Ka6AR4KMFrXU-25" value="Mux" style="shadow=0;dashed=0;align=center;html=1;strokeWidth=1;shape=mxgraph.electrical.abstract.mux2;whiteSpace=wrap;direction=west;" parent="1" vertex="1">
          <mxGeometry x="510" y="580" width="110" height="170" as="geometry" />
        </mxCell>
        <mxCell id="RpWCt385Ka6AR4KMFrXU-26" value="" style="endArrow=classic;html=1;rounded=0;entryX=0.99;entryY=0.575;entryDx=0;entryDy=0;entryPerimeter=0;exitX=-0.02;exitY=0.585;exitDx=0;exitDy=0;exitPerimeter=0;" parent="1" source="RpWCt385Ka6AR4KMFrXU-1" target="RpWCt385Ka6AR4KMFrXU-19" edge="1">
          <mxGeometry width="50" height="50" relative="1" as="geometry">
            <mxPoint x="1310" y="530" as="sourcePoint" />
            <mxPoint x="1300" y="540" as="targetPoint" />
          </mxGeometry>
        </mxCell>
        <mxCell id="RpWCt385Ka6AR4KMFrXU-28" value="" style="endArrow=classic;html=1;rounded=0;entryX=1.02;entryY=0.595;entryDx=0;entryDy=0;entryPerimeter=0;" parent="1" target="RpWCt385Ka6AR4KMFrXU-20" edge="1">
          <mxGeometry width="50" height="50" relative="1" as="geometry">
            <mxPoint x="1360" y="630" as="sourcePoint" />
            <mxPoint x="1060" y="630" as="targetPoint" />
          </mxGeometry>
        </mxCell>
        <mxCell id="RpWCt385Ka6AR4KMFrXU-30" value="" style="endArrow=none;html=1;rounded=0;entryX=0.5;entryY=1;entryDx=0;entryDy=0;" parent="1" target="RpWCt385Ka6AR4KMFrXU-1" edge="1">
          <mxGeometry width="50" height="50" relative="1" as="geometry">
            <mxPoint x="1360" y="630" as="sourcePoint" />
            <mxPoint x="1370" y="590" as="targetPoint" />
          </mxGeometry>
        </mxCell>
        <mxCell id="RpWCt385Ka6AR4KMFrXU-33" value="" style="endArrow=none;html=1;rounded=0;" parent="1" edge="1">
          <mxGeometry width="50" height="50" relative="1" as="geometry">
            <mxPoint x="1370" y="470" as="sourcePoint" />
            <mxPoint x="1370" y="430" as="targetPoint" />
            <Array as="points" />
          </mxGeometry>
        </mxCell>
        <mxCell id="RpWCt385Ka6AR4KMFrXU-35" value="" style="endArrow=classic;html=1;rounded=0;entryX=0.99;entryY=0.175;entryDx=0;entryDy=0;entryPerimeter=0;" parent="1" target="RpWCt385Ka6AR4KMFrXU-18" edge="1">
          <mxGeometry width="50" height="50" relative="1" as="geometry">
            <mxPoint x="1370" y="430" as="sourcePoint" />
            <mxPoint x="1230" y="380" as="targetPoint" />
          </mxGeometry>
        </mxCell>
        <mxCell id="RpWCt385Ka6AR4KMFrXU-37" value="" style="endArrow=none;html=1;rounded=0;" parent="1" edge="1">
          <mxGeometry width="50" height="50" relative="1" as="geometry">
            <mxPoint x="1120" y="880" as="sourcePoint" />
            <mxPoint x="1120" y="630" as="targetPoint" />
          </mxGeometry>
        </mxCell>
        <mxCell id="RpWCt385Ka6AR4KMFrXU-38" value="" style="endArrow=classic;html=1;rounded=0;" parent="1" edge="1">
          <mxGeometry width="50" height="50" relative="1" as="geometry">
            <mxPoint x="1120" y="760" as="sourcePoint" />
            <mxPoint x="1050" y="760" as="targetPoint" />
          </mxGeometry>
        </mxCell>
        <mxCell id="RpWCt385Ka6AR4KMFrXU-40" value="" style="endArrow=classic;html=1;rounded=0;entryX=0.99;entryY=0.595;entryDx=0;entryDy=0;entryPerimeter=0;" parent="1" target="RpWCt385Ka6AR4KMFrXU-24" edge="1">
          <mxGeometry width="50" height="50" relative="1" as="geometry">
            <mxPoint x="1120" y="880" as="sourcePoint" />
            <mxPoint x="1060" y="880" as="targetPoint" />
          </mxGeometry>
        </mxCell>
        <mxCell id="RpWCt385Ka6AR4KMFrXU-42" value="" style="endArrow=none;html=1;rounded=0;" parent="1" edge="1">
          <mxGeometry width="50" height="50" relative="1" as="geometry">
            <mxPoint x="1110" y="620" as="sourcePoint" />
            <mxPoint x="1110" y="530" as="targetPoint" />
          </mxGeometry>
        </mxCell>
        <mxCell id="RpWCt385Ka6AR4KMFrXU-43" value="" style="endArrow=none;html=1;rounded=0;" parent="1" edge="1">
          <mxGeometry width="50" height="50" relative="1" as="geometry">
            <mxPoint x="870" y="530" as="sourcePoint" />
            <mxPoint x="1110" y="530" as="targetPoint" />
          </mxGeometry>
        </mxCell>
        <mxCell id="RpWCt385Ka6AR4KMFrXU-46" value="" style="endArrow=none;html=1;rounded=0;" parent="1" edge="1">
          <mxGeometry width="50" height="50" relative="1" as="geometry">
            <mxPoint x="870" y="530" as="sourcePoint" />
            <mxPoint x="870" y="470" as="targetPoint" />
          </mxGeometry>
        </mxCell>
        <mxCell id="RpWCt385Ka6AR4KMFrXU-47" value="" style="endArrow=classic;html=1;rounded=0;entryX=1.03;entryY=0.615;entryDx=0;entryDy=0;entryPerimeter=0;" parent="1" target="RpWCt385Ka6AR4KMFrXU-21" edge="1">
          <mxGeometry width="50" height="50" relative="1" as="geometry">
            <mxPoint x="870" y="470" as="sourcePoint" />
            <mxPoint x="890" y="430" as="targetPoint" />
          </mxGeometry>
        </mxCell>
        <mxCell id="RpWCt385Ka6AR4KMFrXU-48" value="" style="endArrow=none;html=1;rounded=0;" parent="1" edge="1">
          <mxGeometry width="50" height="50" relative="1" as="geometry">
            <mxPoint x="890" y="620" as="sourcePoint" />
            <mxPoint x="890" y="530" as="targetPoint" />
          </mxGeometry>
        </mxCell>
        <mxCell id="RpWCt385Ka6AR4KMFrXU-49" value="" style="endArrow=classic;html=1;rounded=0;entryX=1;entryY=0.5;entryDx=0;entryDy=0;" parent="1" target="RpWCt385Ka6AR4KMFrXU-22" edge="1">
          <mxGeometry width="50" height="50" relative="1" as="geometry">
            <mxPoint x="890" y="620" as="sourcePoint" />
            <mxPoint x="880" y="580" as="targetPoint" />
          </mxGeometry>
        </mxCell>
        <mxCell id="RpWCt385Ka6AR4KMFrXU-51" value="" style="endArrow=classic;html=1;rounded=0;entryX=1.01;entryY=0.915;entryDx=0;entryDy=0;entryPerimeter=0;fillColor=#d5e8d4;strokeColor=#82b366;" parent="1" target="RpWCt385Ka6AR4KMFrXU-23" edge="1">
          <mxGeometry width="50" height="50" relative="1" as="geometry">
            <mxPoint x="1309" y="792" as="sourcePoint" />
            <mxPoint x="1240" y="750" as="targetPoint" />
          </mxGeometry>
        </mxCell>
        <mxCell id="RpWCt385Ka6AR4KMFrXU-52" value="" style="endArrow=none;html=1;rounded=0;fillColor=#d5e8d4;strokeColor=#82b366;" parent="1" edge="1">
          <mxGeometry width="50" height="50" relative="1" as="geometry">
            <mxPoint x="1370" y="710" as="sourcePoint" />
            <mxPoint x="1370" y="680" as="targetPoint" />
          </mxGeometry>
        </mxCell>
        <mxCell id="RpWCt385Ka6AR4KMFrXU-53" value="" style="endArrow=none;html=1;rounded=0;fillColor=#d5e8d4;strokeColor=#82b366;" parent="1" edge="1">
          <mxGeometry width="50" height="50" relative="1" as="geometry">
            <mxPoint x="850" y="680" as="sourcePoint" />
            <mxPoint x="1370" y="680" as="targetPoint" />
          </mxGeometry>
        </mxCell>
        <mxCell id="RpWCt385Ka6AR4KMFrXU-54" value="" style="endArrow=none;html=1;rounded=0;fillColor=#d5e8d4;strokeColor=#82b366;" parent="1" edge="1">
          <mxGeometry width="50" height="50" relative="1" as="geometry">
            <mxPoint x="850" y="680" as="sourcePoint" />
            <mxPoint x="850" y="650" as="targetPoint" />
          </mxGeometry>
        </mxCell>
        <mxCell id="RpWCt385Ka6AR4KMFrXU-55" value="" style="endArrow=classic;html=1;rounded=0;fillColor=#d5e8d4;strokeColor=#82b366;" parent="1" edge="1">
          <mxGeometry width="50" height="50" relative="1" as="geometry">
            <mxPoint x="850" y="650" as="sourcePoint" />
            <mxPoint x="827" y="650" as="targetPoint" />
          </mxGeometry>
        </mxCell>
        <mxCell id="RpWCt385Ka6AR4KMFrXU-57" value="" style="endArrow=none;html=1;rounded=0;fillColor=#f8cecc;strokeColor=#b85450;" parent="1" edge="1">
          <mxGeometry width="50" height="50" relative="1" as="geometry">
            <mxPoint x="890" y="640" as="sourcePoint" />
            <mxPoint x="947" y="640" as="targetPoint" />
          </mxGeometry>
        </mxCell>
        <mxCell id="RpWCt385Ka6AR4KMFrXU-58" value="" style="endArrow=none;html=1;rounded=0;fillColor=#f8cecc;strokeColor=#b85450;" parent="1" edge="1">
          <mxGeometry width="50" height="50" relative="1" as="geometry">
            <mxPoint x="890" y="700" as="sourcePoint" />
            <mxPoint x="890" y="640" as="targetPoint" />
          </mxGeometry>
        </mxCell>
        <mxCell id="RpWCt385Ka6AR4KMFrXU-59" value="" style="endArrow=none;html=1;rounded=0;fillColor=#f8cecc;strokeColor=#b85450;" parent="1" edge="1">
          <mxGeometry width="50" height="50" relative="1" as="geometry">
            <mxPoint x="660" y="700" as="sourcePoint" />
            <mxPoint x="890" y="700" as="targetPoint" />
          </mxGeometry>
        </mxCell>
        <mxCell id="RpWCt385Ka6AR4KMFrXU-62" value="" style="endArrow=none;html=1;rounded=0;fillColor=#f8cecc;strokeColor=#b85450;" parent="1" edge="1">
          <mxGeometry width="50" height="50" relative="1" as="geometry">
            <mxPoint x="660" y="700" as="sourcePoint" />
            <mxPoint x="660" y="630" as="targetPoint" />
          </mxGeometry>
        </mxCell>
        <mxCell id="RpWCt385Ka6AR4KMFrXU-63" value="" style="endArrow=classic;html=1;rounded=0;entryX=0;entryY=0.6794117647058824;entryDx=0;entryDy=3;entryPerimeter=0;fillColor=#f8cecc;strokeColor=#b85450;" parent="1" target="RpWCt385Ka6AR4KMFrXU-25" edge="1">
          <mxGeometry width="50" height="50" relative="1" as="geometry">
            <mxPoint x="660" y="630" as="sourcePoint" />
            <mxPoint x="710" y="580" as="targetPoint" />
          </mxGeometry>
        </mxCell>
        <mxCell id="RpWCt385Ka6AR4KMFrXU-64" value="" style="endArrow=none;html=1;rounded=0;fillColor=#f8cecc;strokeColor=#b85450;" parent="1" edge="1">
          <mxGeometry width="50" height="50" relative="1" as="geometry">
            <mxPoint x="640" y="750" as="sourcePoint" />
            <mxPoint x="950" y="750" as="targetPoint" />
          </mxGeometry>
        </mxCell>
        <mxCell id="RpWCt385Ka6AR4KMFrXU-65" value="" style="endArrow=none;html=1;rounded=0;fillColor=#f8cecc;strokeColor=#b85450;" parent="1" edge="1">
          <mxGeometry width="50" height="50" relative="1" as="geometry">
            <mxPoint x="640" y="750" as="sourcePoint" />
            <mxPoint x="640" y="710" as="targetPoint" />
          </mxGeometry>
        </mxCell>
        <mxCell id="RpWCt385Ka6AR4KMFrXU-66" value="" style="endArrow=classic;html=1;rounded=0;entryX=0;entryY=0.22647058823529412;entryDx=0;entryDy=3;entryPerimeter=0;fillColor=#f8cecc;strokeColor=#b85450;" parent="1" target="RpWCt385Ka6AR4KMFrXU-25" edge="1">
          <mxGeometry width="50" height="50" relative="1" as="geometry">
            <mxPoint x="640" y="709" as="sourcePoint" />
            <mxPoint x="690" y="670" as="targetPoint" />
          </mxGeometry>
        </mxCell>
        <mxCell id="RpWCt385Ka6AR4KMFrXU-67" value="" style="endArrow=none;html=1;rounded=0;fillColor=#e1d5e7;strokeColor=#9673a6;" parent="1" edge="1">
          <mxGeometry width="50" height="50" relative="1" as="geometry">
            <mxPoint x="1030" y="520" as="sourcePoint" />
            <mxPoint x="1126" y="520" as="targetPoint" />
          </mxGeometry>
        </mxCell>
        <mxCell id="RpWCt385Ka6AR4KMFrXU-68" value="" style="endArrow=classic;html=1;rounded=0;fillColor=#e1d5e7;strokeColor=#9673a6;" parent="1" edge="1">
          <mxGeometry width="50" height="50" relative="1" as="geometry">
            <mxPoint x="1030" y="520" as="sourcePoint" />
            <mxPoint x="1030" y="570" as="targetPoint" />
          </mxGeometry>
        </mxCell>
        <mxCell id="RpWCt385Ka6AR4KMFrXU-69" value="" style="endArrow=none;html=1;rounded=0;fillColor=#e1d5e7;strokeColor=#9673a6;" parent="1" edge="1">
          <mxGeometry width="50" height="50" relative="1" as="geometry">
            <mxPoint x="1190" y="710" as="sourcePoint" />
            <mxPoint x="1190" y="580" as="targetPoint" />
          </mxGeometry>
        </mxCell>
        <mxCell id="RpWCt385Ka6AR4KMFrXU-70" value="" style="endArrow=classic;html=1;rounded=0;entryX=1.02;entryY=0.125;entryDx=0;entryDy=0;entryPerimeter=0;fillColor=#e1d5e7;strokeColor=#9673a6;" parent="1" target="RpWCt385Ka6AR4KMFrXU-23" edge="1">
          <mxGeometry width="50" height="50" relative="1" as="geometry">
            <mxPoint x="1190" y="713" as="sourcePoint" />
            <mxPoint x="1180" y="660" as="targetPoint" />
          </mxGeometry>
        </mxCell>
        <mxCell id="RpWCt385Ka6AR4KMFrXU-71" value="" style="endArrow=classic;html=1;rounded=0;exitX=0.5;exitY=1;exitDx=0;exitDy=0;fillColor=#e1d5e7;strokeColor=#9673a6;" parent="1" source="RpWCt385Ka6AR4KMFrXU-18" target="RpWCt385Ka6AR4KMFrXU-20" edge="1">
          <mxGeometry width="50" height="50" relative="1" as="geometry">
            <mxPoint x="1000" y="550" as="sourcePoint" />
            <mxPoint x="1050" y="500" as="targetPoint" />
          </mxGeometry>
        </mxCell>
        <mxCell id="RpWCt385Ka6AR4KMFrXU-72" value="" style="endArrow=classic;html=1;rounded=0;exitX=-0.04;exitY=0.595;exitDx=0;exitDy=0;exitPerimeter=0;fillColor=#e1d5e7;strokeColor=#9673a6;" parent="1" source="RpWCt385Ka6AR4KMFrXU-20" edge="1">
          <mxGeometry width="50" height="50" relative="1" as="geometry">
            <mxPoint x="910" y="630" as="sourcePoint" />
            <mxPoint x="830" y="631" as="targetPoint" />
          </mxGeometry>
        </mxCell>
        <mxCell id="RpWCt385Ka6AR4KMFrXU-73" value="" style="endArrow=classic;html=1;rounded=0;entryX=0.4;entryY=1;entryDx=0;entryDy=0;entryPerimeter=0;fillColor=#e1d5e7;strokeColor=#9673a6;" parent="1" target="RpWCt385Ka6AR4KMFrXU-23" edge="1">
          <mxGeometry width="50" height="50" relative="1" as="geometry">
            <mxPoint x="990" y="820" as="sourcePoint" />
            <mxPoint x="1040" y="770" as="targetPoint" />
          </mxGeometry>
        </mxCell>
        <mxCell id="RpWCt385Ka6AR4KMFrXU-77" value="" style="endArrow=classic;html=1;rounded=0;fillColor=#e1d5e7;strokeColor=#9673a6;" parent="1" edge="1">
          <mxGeometry width="50" height="50" relative="1" as="geometry">
            <mxPoint x="780" y="880" as="sourcePoint" />
            <mxPoint x="780" y="670" as="targetPoint" />
          </mxGeometry>
        </mxCell>
        <mxCell id="RpWCt385Ka6AR4KMFrXU-79" value="" style="endArrow=none;html=1;rounded=0;entryX=0;entryY=0.585;entryDx=0;entryDy=0;entryPerimeter=0;fillColor=#e1d5e7;strokeColor=#9673a6;" parent="1" target="RpWCt385Ka6AR4KMFrXU-24" edge="1">
          <mxGeometry width="50" height="50" relative="1" as="geometry">
            <mxPoint x="780" y="880" as="sourcePoint" />
            <mxPoint x="950" y="870" as="targetPoint" />
          </mxGeometry>
        </mxCell>
        <mxCell id="RpWCt385Ka6AR4KMFrXU-80" value="" style="endArrow=none;html=1;rounded=0;fillColor=#e1d5e7;strokeColor=#9673a6;" parent="1" edge="1">
          <mxGeometry width="50" height="50" relative="1" as="geometry">
            <mxPoint x="780" y="780" as="sourcePoint" />
            <mxPoint x="950" y="780" as="targetPoint" />
          </mxGeometry>
        </mxCell>
        <mxCell id="2-lUiezWXwxuvfU7oQHC-1" value="A 440 Hz Frequency generetor" style="whiteSpace=wrap;html=1;aspect=fixed;" vertex="1" parent="1">
          <mxGeometry x="1310" y="970" width="100" height="100" as="geometry" />
        </mxCell>
        <mxCell id="2-lUiezWXwxuvfU7oQHC-2" value="&lt;font style=&quot;font-size: 18px;&quot;&gt;Sound Effects&amp;nbsp;&lt;/font&gt;&lt;div&gt;&lt;font style=&quot;font-size: 18px;&quot;&gt;Top Module&lt;/font&gt;&lt;/div&gt;" style="whiteSpace=wrap;html=1;aspect=fixed;" vertex="1" parent="1">
          <mxGeometry x="970" y="970" width="100" height="100" as="geometry" />
        </mxCell>
        <mxCell id="2-lUiezWXwxuvfU7oQHC-4" value="&lt;font style=&quot;font-size: 23px;&quot;&gt;RGB&lt;/font&gt;" style="text;html=1;align=center;verticalAlign=middle;whiteSpace=wrap;rounded=0;" vertex="1" parent="1">
          <mxGeometry x="510" y="755" width="60" height="30" as="geometry" />
        </mxCell>
        <mxCell id="2-lUiezWXwxuvfU7oQHC-6" value="Sound runs only upon colliding with the paddle" style="text;html=1;align=center;verticalAlign=middle;whiteSpace=wrap;rounded=0;" vertex="1" parent="1">
          <mxGeometry x="1200" y="1120" width="270" height="30" as="geometry" />
        </mxCell>
        <mxCell id="2-lUiezWXwxuvfU7oQHC-9" value="" style="endArrow=classic;html=1;rounded=0;fillColor=#dae8fc;strokeColor=#6c8ebf;" edge="1" parent="1">
          <mxGeometry width="50" height="50" relative="1" as="geometry">
            <mxPoint x="1310" y="1030" as="sourcePoint" />
            <mxPoint x="1072" y="1030" as="targetPoint" />
          </mxGeometry>
        </mxCell>
        <mxCell id="2-lUiezWXwxuvfU7oQHC-12" value="" style="endArrow=none;html=1;rounded=0;entryX=0.89;entryY=1.02;entryDx=0;entryDy=0;entryPerimeter=0;" edge="1" parent="1" target="RpWCt385Ka6AR4KMFrXU-1">
          <mxGeometry width="50" height="50" relative="1" as="geometry">
            <mxPoint x="1400" y="680" as="sourcePoint" />
            <mxPoint x="1450" y="580" as="targetPoint" />
          </mxGeometry>
        </mxCell>
        <mxCell id="2-lUiezWXwxuvfU7oQHC-13" value="" style="endArrow=none;html=1;rounded=0;" edge="1" parent="1">
          <mxGeometry width="50" height="50" relative="1" as="geometry">
            <mxPoint x="1400" y="680" as="sourcePoint" />
            <mxPoint x="1490" y="680" as="targetPoint" />
          </mxGeometry>
        </mxCell>
        <mxCell id="2-lUiezWXwxuvfU7oQHC-14" value="" style="endArrow=none;html=1;rounded=0;" edge="1" parent="1">
          <mxGeometry width="50" height="50" relative="1" as="geometry">
            <mxPoint x="1490" y="1040" as="sourcePoint" />
            <mxPoint x="1490" y="680" as="targetPoint" />
          </mxGeometry>
        </mxCell>
        <mxCell id="2-lUiezWXwxuvfU7oQHC-15" value="" style="endArrow=classic;html=1;rounded=0;entryX=0.97;entryY=0.69;entryDx=0;entryDy=0;entryPerimeter=0;" edge="1" parent="1" target="2-lUiezWXwxuvfU7oQHC-1">
          <mxGeometry width="50" height="50" relative="1" as="geometry">
            <mxPoint x="1490" y="1040" as="sourcePoint" />
            <mxPoint x="1540" y="990" as="targetPoint" />
          </mxGeometry>
        </mxCell>
        <mxCell id="2-lUiezWXwxuvfU7oQHC-19" value="" style="endArrow=none;html=1;rounded=0;" edge="1" parent="1">
          <mxGeometry width="50" height="50" relative="1" as="geometry">
            <mxPoint x="1120" y="900" as="sourcePoint" />
            <mxPoint x="1490" y="900" as="targetPoint" />
          </mxGeometry>
        </mxCell>
        <mxCell id="2-lUiezWXwxuvfU7oQHC-20" value="" style="endArrow=classic;html=1;rounded=0;" edge="1" parent="1">
          <mxGeometry width="50" height="50" relative="1" as="geometry">
            <mxPoint x="1120" y="900" as="sourcePoint" />
            <mxPoint x="1120" y="900" as="targetPoint" />
          </mxGeometry>
        </mxCell>
        <mxCell id="2-lUiezWXwxuvfU7oQHC-21" value="" style="endArrow=none;html=1;rounded=0;" edge="1" parent="1">
          <mxGeometry width="50" height="50" relative="1" as="geometry">
            <mxPoint x="1120" y="980" as="sourcePoint" />
            <mxPoint x="1120" y="900" as="targetPoint" />
          </mxGeometry>
        </mxCell>
        <mxCell id="2-lUiezWXwxuvfU7oQHC-22" value="" style="endArrow=classic;html=1;rounded=0;entryX=1.02;entryY=0.11;entryDx=0;entryDy=0;entryPerimeter=0;" edge="1" parent="1" target="2-lUiezWXwxuvfU7oQHC-2">
          <mxGeometry width="50" height="50" relative="1" as="geometry">
            <mxPoint x="1120" y="980" as="sourcePoint" />
            <mxPoint x="1170" y="930" as="targetPoint" />
          </mxGeometry>
        </mxCell>
        <mxCell id="2-lUiezWXwxuvfU7oQHC-23" value="" style="endArrow=none;html=1;rounded=0;fillColor=#dae8fc;strokeColor=#6c8ebf;" edge="1" parent="1">
          <mxGeometry width="50" height="50" relative="1" as="geometry">
            <mxPoint x="730" y="1040" as="sourcePoint" />
            <mxPoint x="970" y="1040" as="targetPoint" />
          </mxGeometry>
        </mxCell>
        <mxCell id="2-lUiezWXwxuvfU7oQHC-24" value="" style="endArrow=classic;html=1;rounded=0;entryX=0;entryY=1;entryDx=0;entryDy=0;fillColor=#dae8fc;strokeColor=#6c8ebf;" edge="1" parent="1" target="RpWCt385Ka6AR4KMFrXU-22">
          <mxGeometry width="50" height="50" relative="1" as="geometry">
            <mxPoint x="730" y="1040" as="sourcePoint" />
            <mxPoint x="780" y="990" as="targetPoint" />
          </mxGeometry>
        </mxCell>
        <mxCell id="2-lUiezWXwxuvfU7oQHC-25" value="" style="endArrow=classic;html=1;rounded=0;fillColor=#dae8fc;strokeColor=#6c8ebf;" edge="1" parent="1">
          <mxGeometry width="50" height="50" relative="1" as="geometry">
            <mxPoint x="730" y="610" as="sourcePoint" />
            <mxPoint x="680" y="610" as="targetPoint" />
          </mxGeometry>
        </mxCell>
        <mxCell id="2-lUiezWXwxuvfU7oQHC-26" value="Buzzer" style="text;html=1;align=center;verticalAlign=middle;whiteSpace=wrap;rounded=0;" vertex="1" parent="1">
          <mxGeometry x="630" y="600" width="60" height="30" as="geometry" />
        </mxCell>
      </root>
    </mxGraphModel>
  </diagram>
</mxfile>
